<?xml version='1.0' encoding='UTF-8'?>
<!DOCTYPE svg PUBLIC "-//W3C//DTD SVG 1.0//EN" "http://www.w3.org/TR/2001/REC-SVG-20010904/DTD/svg10.dtd">
<svg viewBox="0 0 640 677" xmlns="http://www.w3.org/2000/svg" xmlns:inkspace="http://www.inkscape.org/namespaces/inkscape" xmlns:xlink="http://www.w3.org/1999/xlink">
  <defs id="defs_block">
    <filter height="1.504" id="filter_blur" inkspace:collect="always" width="1.1575" x="-0.07875" y="-0.252">
      <feGaussianBlur id="feGaussianBlur3780" inkspace:collect="always" stdDeviation="4.2" />
    </filter>
  </defs>
  <title>blockdiag</title>
  <desc>seqdiag {
  AnyService [style = dashed];
  MicroCounter [label = "MicroCounter\nHTTP:8080"];
  Redis [label = "Redis\n:6379"];

  AnyService -&gt; MicroCounter [label = "GET /counter"];
  MicroCounter =&gt; Redis [label = "GET counter", return = "current value"];
  AnyService &lt;- MicroCounter [label = "current value"];

  AnyService -&gt; MicroCounter [label = "POST /counter, incrBy=number"];
  MicroCounter =&gt; Redis [label = "INCRBY counter number", return = "current value"];
  AnyService &lt;- MicroCounter [label = "current value"];
}</desc>
  <rect fill="rgb(0,0,0)" height="514" style="filter:url(#filter_blur);opacity:0.7;fill-opacity:1" width="8" x="127" y="141" />
  <rect fill="rgb(0,0,0)" height="195" style="filter:url(#filter_blur);opacity:0.7;fill-opacity:1" width="8" x="319" y="141" />
  <rect fill="rgb(0,0,0)" height="195" style="filter:url(#filter_blur);opacity:0.7;fill-opacity:1" width="8" x="319" y="414" />
  <rect fill="rgb(0,0,0)" height="65" style="filter:url(#filter_blur);opacity:0.7;fill-opacity:1" width="8" x="511" y="206" />
  <rect fill="rgb(0,0,0)" height="65" style="filter:url(#filter_blur);opacity:0.7;fill-opacity:1" width="8" x="511" y="479" />
  <rect fill="rgb(0,0,0)" height="40" stroke="rgb(0,0,0)" style="filter:url(#filter_blur);opacity:0.7;fill-opacity:1" width="128" x="67" y="46" />
  <rect fill="rgb(0,0,0)" height="40" stroke="rgb(0,0,0)" style="filter:url(#filter_blur);opacity:0.7;fill-opacity:1" width="128" x="259" y="46" />
  <rect fill="rgb(0,0,0)" height="40" stroke="rgb(0,0,0)" style="filter:url(#filter_blur);opacity:0.7;fill-opacity:1" width="128" x="451" y="46" />
  <path d="M 128 80 L 128 665" fill="none" stroke="rgb(0,0,0)" stroke-dasharray="8 4" />
  <rect fill="moccasin" height="514" stroke="rgb(0,0,0)" width="8" x="124" y="135" />
  <path d="M 320 80 L 320 665" fill="none" stroke="rgb(0,0,0)" stroke-dasharray="8 4" />
  <rect fill="moccasin" height="195" stroke="rgb(0,0,0)" width="8" x="316" y="135" />
  <rect fill="moccasin" height="195" stroke="rgb(0,0,0)" width="8" x="316" y="408" />
  <path d="M 512 80 L 512 665" fill="none" stroke="rgb(0,0,0)" stroke-dasharray="8 4" />
  <rect fill="moccasin" height="65" stroke="rgb(0,0,0)" width="8" x="508" y="200" />
  <rect fill="moccasin" height="65" stroke="rgb(0,0,0)" width="8" x="508" y="473" />
  <rect fill="rgb(255,255,255)" height="40" stroke="rgb(0,0,0)" stroke-dasharray="4" width="128" x="64" y="40" />
  <text fill="rgb(0,0,0)" font-family="sansserif" font-size="11" font-style="normal" font-weight="normal" text-anchor="middle" textLength="60" x="128" y="66">AnyService</text>
  <rect fill="rgb(255,255,255)" height="40" stroke="rgb(0,0,0)" width="128" x="256" y="40" />
  <text fill="rgb(0,0,0)" font-family="sansserif" font-size="11" font-style="normal" font-weight="normal" text-anchor="middle" textLength="72" x="320" y="59">MicroCounter</text>
  <text fill="rgb(0,0,0)" font-family="sansserif" font-size="11" font-style="normal" font-weight="normal" text-anchor="middle" textLength="54" x="320" y="72">HTTP:8080</text>
  <rect fill="rgb(255,255,255)" height="40" stroke="rgb(0,0,0)" width="128" x="448" y="40" />
  <text fill="rgb(0,0,0)" font-family="sansserif" font-size="11" font-style="normal" font-weight="normal" text-anchor="middle" textLength="30" x="512" y="59">Redis</text>
  <text fill="rgb(0,0,0)" font-family="sansserif" font-size="11" font-style="normal" font-weight="normal" text-anchor="middle" textLength="30" x="512" y="72">:6379</text>
  <path d="M 136 135 L 312 135" fill="none" stroke="rgb(0,0,0)" />
  <polygon fill="rgb(0,0,0)" points="304,131 312,135 304,139" stroke="rgb(0,0,0)" />
  <path d="M 328 200 L 504 200" fill="none" stroke="rgb(0,0,0)" />
  <polygon fill="rgb(0,0,0)" points="496,196 504,200 496,204" stroke="rgb(0,0,0)" />
  <path d="M 328 265 L 504 265" fill="none" stroke="rgb(0,0,0)" stroke-dasharray="4" />
  <polygon fill="rgb(0,0,0)" points="336,261 328,265 336,269" stroke="rgb(0,0,0)" />
  <path d="M 136 330 L 312 330" fill="none" stroke="rgb(0,0,0)" />
  <polygon fill="rgb(0,0,0)" points="144,326 136,330 144,334" stroke="rgb(0,0,0)" />
  <path d="M 136 408 L 312 408" fill="none" stroke="rgb(0,0,0)" />
  <polygon fill="rgb(0,0,0)" points="304,404 312,408 304,412" stroke="rgb(0,0,0)" />
  <path d="M 328 473 L 504 473" fill="none" stroke="rgb(0,0,0)" />
  <polygon fill="rgb(0,0,0)" points="496,469 504,473 496,477" stroke="rgb(0,0,0)" />
  <path d="M 328 538 L 504 538" fill="none" stroke="rgb(0,0,0)" stroke-dasharray="4" />
  <polygon fill="rgb(0,0,0)" points="336,534 328,538 336,542" stroke="rgb(0,0,0)" />
  <path d="M 136 603 L 312 603" fill="none" stroke="rgb(0,0,0)" />
  <polygon fill="rgb(0,0,0)" points="144,599 136,603 144,607" stroke="rgb(0,0,0)" />
  <text fill="rgb(0,0,0)" font-family="sansserif" font-size="11" font-style="normal" font-weight="normal" text-anchor="middle" textLength="72" x="176" y="133">GET /counter</text>
  <text fill="rgb(0,0,0)" font-family="sansserif" font-size="11" font-style="normal" font-weight="normal" text-anchor="middle" textLength="66" x="365" y="198">GET counter</text>
  <text fill="rgb(0,0,0)" font-family="sansserif" font-size="11" font-style="normal" font-weight="normal" text-anchor="middle" textLength="78" x="465" y="263">current value</text>
  <text fill="rgb(0,0,0)" font-family="sansserif" font-size="11" font-style="normal" font-weight="normal" text-anchor="middle" textLength="78" x="273" y="328">current value</text>
  <text fill="rgb(0,0,0)" font-family="sansserif" font-size="11" font-style="normal" font-weight="normal" text-anchor="middle" textLength="168" x="224" y="400">POST /counter, incrBy=number</text>
  <text fill="rgb(0,0,0)" font-family="sansserif" font-size="11" font-style="normal" font-weight="normal" text-anchor="middle" textLength="126" x="395" y="471">INCRBY counter number</text>
  <text fill="rgb(0,0,0)" font-family="sansserif" font-size="11" font-style="normal" font-weight="normal" text-anchor="middle" textLength="78" x="465" y="536">current value</text>
  <text fill="rgb(0,0,0)" font-family="sansserif" font-size="11" font-style="normal" font-weight="normal" text-anchor="middle" textLength="78" x="273" y="601">current value</text>
</svg>
